<svg width="30" height="30" viewBox="0 0 30 30" fill="none" xmlns="http://www.w3.org/2000/svg">
<path d="M15.6423 7.76826C16.1944 7.76833 16.6421 8.21614 16.6423 8.76826V14.0671H21.9411C22.4932 14.0671 22.941 14.515 22.9411 15.0671V15.6423C22.941 16.1944 22.4933 16.6422 21.9411 16.6423H16.6423V21.9411C16.6422 22.4933 16.1944 22.9411 15.6423 22.9411H15.0671C14.515 22.9409 14.0672 22.4932 14.0671 21.9411V16.6423H8.76825C8.21621 16.6421 7.76837 16.1943 7.76825 15.6423V15.0671C7.76839 14.5151 8.21622 14.0673 8.76825 14.0671H14.0671V8.76826C14.0672 8.21622 14.5151 7.76847 15.0671 7.76826H15.6423Z" fill="black"/>
<circle cx="14.8892" cy="14.8892" r="14.2892" stroke="black" stroke-width="1.2"/>
</svg>
